Coordinates
version=1
nRows=13
nColumns=40
inDegrees=yes

Units are S.I. units (second, meters, Newtons, ...)
If the header above contains a line with 'inDegrees', this indicates whether rotational values are in degrees (yes) or radians (no).

endheader
time	pelvis_tilt	pelvis_list	pelvis_rotation	pelvis_tx	pelvis_ty	pelvis_tz	hip_flexion_r	hip_adduction_r	hip_rotation_r	knee_angle_r	knee_angle_r_beta	ankle_angle_r	subtalar_angle_r	mtp_angle_r	hip_flexion_l	hip_adduction_l	hip_rotation_l	knee_angle_l	knee_angle_l_beta	ankle_angle_l	subtalar_angle_l	mtp_angle_l	lumbar_extension	lumbar_bending	lumbar_rotation	arm_flex_r	arm_add_r	arm_rot_r	elbow_flex_r	pro_sup_r	wrist_flex_r	wrist_dev_r	arm_flex_l	arm_add_l	arm_rot_l	elbow_flex_l	pro_sup_l	wrist_flex_l	wrist_dev_l
      8.00000000	      8.96650388	     -5.20490065	    179.71872187	      0.34625784	      0.74536613	     -0.61231449	     63.55584809	     -9.98461604	      7.78624615	     70.80470415	      1.23577521	     22.49254318	      0.00000000	      0.00000000	     59.95913710	    -10.49797493	    -10.31947245	     71.67703789	      1.25100031	     20.17907031	      0.00000000	      0.00000000	    -64.87739430	     -1.87831150	    -12.91251895	     60.87349974	      4.76285724	     40.31023859	      4.17168104	     10.63470662	      0.00000000	      0.00000000	     66.69633155	    -15.19586370	     75.09419438	      3.39428004	     83.19505850	      0.00000000	      0.00000000
      8.00500000	      9.01522582	     -5.21270680	    179.71504909	      0.34598781	      0.74574421	     -0.61220601	     63.54309404	    -10.00361455	      7.77490526	     70.72493879	      1.23438305	     22.45988338	      0.00000000	      0.00000000	     59.94054918	    -10.47365396	    -10.33819315	     71.60375624	      1.24972130	     20.15478443	      0.00000000	      0.00000000	    -64.87132338	     -1.85964387	    -12.91480656	     60.88895367	      4.75985406	     40.31163720	      4.16910720	     10.61986744	      0.00000000	      0.00000000	     66.70918978	    -15.17326523	     75.08613687	      3.40858476	     83.18460758	      0.00000000	      0.00000000
      8.01000000	      9.07807466	     -5.19649436	    179.71782238	      0.34568961	      0.74622095	     -0.61215034	     63.50750117	    -10.01344653	      7.72592409	     70.60194947	      1.23223648	     22.41684418	      0.00000000	      0.00000000	     59.92455127	    -10.46257020	    -10.33823340	     71.49943419	      1.24790054	     20.12848792	      0.00000000	      0.00000000	    -64.86460792	     -1.83827899	    -12.89532566	     60.91005999	      4.75477893	     40.31391396	      4.16641689	     10.60432570	      0.00000000	      0.00000000	     66.68879132	    -15.16306057	     75.07276050	      3.41019561	     83.17566232	      0.00000000	      0.00000000
      8.01500000	      9.11117140	     -5.19190524	    179.71887218	      0.34539434	      0.74659092	     -0.61220127	     63.47710285	    -10.02402758	      7.70032543	     70.53729944	      1.23110812	     22.39746914	      0.00000000	      0.00000000	     59.89379627	    -10.46011465	    -10.34096319	     71.43003611	      1.24668931	     20.10937658	      0.00000000	      0.00000000	    -64.86840791	     -1.83653804	    -12.87831866	     60.92842427	      4.76520668	     40.31807010	      4.17038931	     10.59080059	      0.00000000	      0.00000000	     66.68947388	    -15.14159777	     75.05260120	      3.42139157	     83.16441561	      0.00000000	      0.00000000
      8.02000000	      9.14810930	     -5.17824539	    179.71949265	      0.34514858	      0.74698840	     -0.61215543	     63.44295441	    -10.02900863	      7.67077761	     70.45282179	      1.22963371	     22.35953064	      0.00000000	      0.00000000	     59.86845443	    -10.45128952	    -10.33314900	     71.35207721	      1.24532868	     20.08345383	      0.00000000	      0.00000000	    -64.87284446	     -1.81767847	    -12.85978767	     60.94654496	      4.75523851	     40.32097128	      4.16640466	     10.57557720	      0.00000000	      0.00000000	     66.68383944	    -15.13373094	     75.02476235	      3.42141227	     83.15179239	      0.00000000	      0.00000000
      8.02500000	      9.18206756	     -5.20248876	    179.71959666	      0.34479886	      0.74745695	     -0.61209507	     63.40408901	    -10.06734684	      7.65996774	     70.36173073	      1.22804387	     22.32780267	      0.00000000	      0.00000000	     59.82203998	    -10.41344390	    -10.35714493	     71.27030407	      1.24390146	     20.05049025	      0.00000000	      0.00000000	    -64.88122245	     -1.82005413	    -12.86502609	     60.94406949	      4.72926003	     40.32116672	      4.15069566	     10.55839827	      0.00000000	      0.00000000	     66.64859159	    -15.10016663	     74.98783270	      3.43286554	     83.13949932	      0.00000000	      0.00000000
      8.03000000	      9.22816270	     -5.19145512	    179.71980902	      0.34458123	      0.74789993	     -0.61216023	     63.37077628	    -10.05209960	      7.64960302	     70.26606432	      1.22637417	     22.29225643	      0.00000000	      0.00000000	     59.79068381	    -10.41780955	    -10.37010696	     71.16409446	      1.24204776	     20.01728525	      0.00000000	      0.00000000	    -64.87672935	     -1.82203193	    -12.84864696	     60.95688328	      4.72250679	     40.32499296	      4.14927736	     10.54419330	      0.00000000	      0.00000000	     66.66699007	    -15.09192493	     74.94936560	      3.42672365	     83.12633077	      0.00000000	      0.00000000
      8.03500000	      9.27112460	     -5.20189115	    179.72024498	      0.34428986	      0.74835861	     -0.61222010	     63.33724776	    -10.05691359	      7.64727762	     70.17987133	      1.22486982	     22.25755629	      0.00000000	      0.00000000	     59.75342070	    -10.40519159	    -10.39228898	     71.06981834	      1.24040233	     19.98382982	      0.00000000	      0.00000000	    -64.87713773	     -1.83027036	    -12.83678836	     60.95964309	      4.71985196	     40.32775840	      4.15007861	     10.53057287	      0.00000000	      0.00000000	     66.64754728	    -15.06114062	     74.90966143	      3.43070433	     83.11623072	      0.00000000	      0.00000000
      8.04000000	      9.29133587	     -5.20658387	    179.71690917	      0.34410266	      0.74878413	     -0.61219690	     63.29168950	    -10.06384354	      7.64817083	     70.09340787	      1.22336075	     22.22139214	      0.00000000	      0.00000000	     59.70870563	    -10.38740915	    -10.39954850	     70.98848572	      1.23898281	     19.94591408	      0.00000000	      0.00000000	    -64.87930729	     -1.84189853	    -12.83867086	     60.97987764	      4.71230623	     40.33118707	      4.15664371	     10.51902119	      0.00000000	      0.00000000	     66.66518775	    -15.03202113	     74.86781881	      3.42901597	     83.10373493	      0.00000000	      0.00000000
      8.04500000	      9.31902757	     -5.22940352	    179.72095619	      0.34384008	      0.74927891	     -0.61221906	     63.24459366	    -10.09347335	      7.63553874	     69.99028615	      1.22156094	     22.17983962	      0.00000000	      0.00000000	     59.65546327	    -10.36048676	    -10.42904984	     70.88829839	      1.23723421	     19.89591450	      0.00000000	      0.00000000	    -64.90181418	     -1.84654927	    -12.83780269	     60.97777492	      4.68370852	     40.33094687	      4.14806518	     10.50432450	      0.00000000	      0.00000000	     66.65658557	    -15.00341166	     74.82096119	      3.42811859	     83.09060172	      0.00000000	      0.00000000
      8.05000000	      9.33086884	     -5.25101174	    179.72267583	      0.34363049	      0.74977358	     -0.61235108	     63.18594168	    -10.10217069	      7.63073706	     69.90493234	      1.22007123	     22.16462221	      0.00000000	      0.00000000	     59.58673048	    -10.35409265	    -10.46757026	     70.78462828	      1.23542482	     19.84031340	      0.00000000	      0.00000000	    -64.92972301	     -1.86847173	    -12.83835318	     60.98362941	      4.67208882	     40.33412555	      4.14848439	     10.49151702	      0.00000000	      0.00000000	     66.67222953	    -14.98718187	     74.77499868	      3.41620310	     83.07675808	      0.00000000	      0.00000000
      8.05500000	      9.34492886	     -5.29021056	    179.72537983	      0.34340433	      0.75023431	     -0.61237272	     63.13323813	    -10.12380819	      7.66676830	     69.81338161	      1.21847337	     22.13801740	      0.00000000	      0.00000000	     59.51785595	    -10.32841708	    -10.52880023	     70.68819991	      1.23374183	     19.79071317	      0.00000000	      0.00000000	    -64.94714047	     -1.89108037	    -12.85501462	     60.98787786	      4.65644908	     40.33628740	      4.14778284	     10.47852073	      0.00000000	      0.00000000	     66.68122178	    -14.96836579	     74.72910321	      3.40567924	     83.06482561	      0.00000000	      0.00000000
      8.06000000	      9.34726501	     -5.31653116	    179.72349055	      0.34322078	      0.75063169	     -0.61245360	     63.08830964	    -10.12832922	      7.69482379	     69.75511076	      1.21745635	     22.10695309	      0.00000000	      0.00000000	     59.44892628	    -10.33249519	    -10.59935100	     70.60856574	      1.23235195	     19.74907798	      0.00000000	      0.00000000	    -64.96724341	     -1.91237615	    -12.85748618	     61.00018756	      4.66658063	     40.34065559	      4.15946210	     10.46979550	      0.00000000	      0.00000000	     66.68574327	    -14.94677656	     74.68773962	      3.40686759	     83.05527760	      0.00000000	      0.00000000
